<svg width="26" height="35" viewBox="0 0 26 35" fill="none" xmlns="http://www.w3.org/2000/svg">
<path d="M24.6187 17.0055C23.814 14.1038 20.5109 9.5996 20.7046 1.55775C20.7093 1.36086 20.6411 1.16997 20.5158 1.02989C20.3906 0.889875 20.2193 0.813094 20.0424 0.817547L5.1634 1.192C4.98646 1.19645 4.81929 1.28175 4.70129 1.42788C4.58328 1.57402 4.52468 1.7681 4.53929 1.96458C5.13443 9.94954 2.07287 14.6609 1.40233 17.5838C0.189524 22.8536 2.55318 29.5613 5.73793 33.9093C5.86435 34.0819 6.05508 34.18 6.2545 34.175L20.6124 33.8137C20.8117 33.8086 20.9973 33.7011 21.1149 33.5224C23.9341 29.238 26.0479 22.1406 24.6187 17.0055ZM4.42533 12.9919C5.54733 9.55572 6.03224 6.06666 5.8695 2.60954L19.4083 2.26881C19.4197 5.72838 20.0793 9.18792 21.3723 12.5638C21.4271 12.7068 21.4843 12.851 21.5435 12.9967C18.9286 14.4612 15.9756 15.2723 12.9639 15.3481C9.95212 15.4239 6.96198 14.7624 4.27667 13.4313C4.32782 13.2842 4.37757 13.138 4.42533 12.9919ZM12.7529 32.5762L6.53769 32.7326C3.09572 27.878 1.96463 22.2993 2.50886 18.6959C6.03445 20.0991 9.41991 23.2285 12.5814 25.7612L12.7529 32.5762ZM2.8219 17.3C3.02215 16.6262 3.27675 15.9969 3.56131 15.2951C3.63322 15.1179 3.70634 14.9372 3.78012 14.7522C6.6337 16.1621 9.80652 16.8628 13 16.7824C16.1933 16.702 19.3268 15.8427 22.1058 14.2911C22.1885 14.4716 22.2703 14.6477 22.3507 14.8205C22.6706 15.5082 22.9568 16.1247 23.1884 16.7884C19.5455 18.424 16.16 21.8452 13.1939 24.4895C10.0853 21.9873 6.54337 18.7498 2.8219 17.3ZM20.2559 32.3874L14.0411 32.5438L13.8696 25.7288C16.9212 23.0208 20.1251 19.7471 23.5638 18.1703C24.4438 22.6833 22.596 28.6664 20.2559 32.3874Z" fill="#9B7EDE"/>
</svg>
