<svg width="35" height="21" viewBox="0 0 35 21" fill="none" xmlns="http://www.w3.org/2000/svg">
<path d="M13.7894 11.3655C13.8752 11.3996 13.9737 11.4166 14.0723 11.4166C14.1708 11.4166 14.2693 11.3996 14.3551 11.3655C14.5424 11.2912 15.2013 10.9701 15.8164 9.96061C16.4228 8.96512 16.7567 7.67608 16.7567 6.33076C16.7567 4.98545 16.4228 3.69637 15.8164 2.70088C15.2013 1.69136 14.5424 1.37033 14.3551 1.29601C14.1835 1.22793 13.961 1.22793 13.7895 1.29601C13.6021 1.37033 12.9432 1.69136 12.3282 2.70088C11.7218 3.69633 11.3878 4.98537 11.3878 6.33076C11.3878 7.67612 11.7218 8.96516 12.3282 9.96069C12.9432 10.9702 13.6021 11.2912 13.7894 11.3655ZM13.2912 2.91207C13.571 2.45274 13.8597 2.15952 14.0723 1.99008C14.2847 2.15956 14.5735 2.45278 14.8533 2.91207C15.4195 3.84157 15.7313 5.05571 15.7313 6.33081C15.7313 7.6059 15.4195 8.81996 14.8533 9.74946C14.5735 10.2088 14.2848 10.5021 14.0723 10.6715C13.8597 10.502 13.571 10.2088 13.2912 9.7495C12.725 8.82 12.4132 7.60586 12.4132 6.33076C12.4132 5.05567 12.725 3.84153 13.2912 2.91207Z" fill="#FEFCFF"/>
<path d="M25.1563 7.54651C24.8731 7.54651 24.6436 7.6842 24.6436 7.85413V8.65807H22.6737C22.3904 8.65807 22.161 8.79576 22.161 8.96569C22.161 9.13566 22.3904 9.27331 22.6737 9.27331H24.6436V12.0463H22.6737C22.3904 12.0463 22.161 12.184 22.161 12.3539C22.161 12.5239 22.3904 12.6615 22.6737 12.6615H24.6436V15.4345H22.6737C22.3904 15.4345 22.161 15.5721 22.161 15.7421C22.161 15.912 22.3904 16.0497 22.6737 16.0497H24.6436V18.279H23.5749C23.3513 17.8082 22.6285 17.4623 21.773 17.4623C20.9175 17.4623 20.1947 17.8083 19.9711 18.279H18.8132V17.0264C18.8132 16.8564 18.5837 16.7188 18.3005 16.7188C18.0173 16.7188 17.7878 16.8564 17.7878 17.0264V20.4463C17.7878 20.7516 18.2018 21 18.7106 21H24.7461C25.255 21 25.669 20.7516 25.669 20.4463V7.85413C25.669 7.68424 25.4395 7.54651 25.1563 7.54651ZM21.7731 18.0775C22.2409 18.0775 22.6214 18.3058 22.6214 18.5865C22.6214 18.8672 22.2409 19.0954 21.7731 19.0954C21.3053 19.0954 20.9248 18.8672 20.9248 18.5865C20.9248 18.3058 21.3053 18.0775 21.7731 18.0775ZM24.6436 20.3848H18.8132V18.8943H19.9713C20.195 19.365 20.9178 19.7107 21.773 19.7107C22.6282 19.7107 23.351 19.3649 23.5747 18.8943H24.6436V20.3848Z" fill="#FEFCFF"/>
<path d="M24.3899 1.95234C23.5061 0.693574 22.2763 0 20.9275 0H14.0725C13.4217 0 12.7955 0.162832 12.2233 0.47373C11.6512 0.784629 11.1316 1.24359 10.6941 1.83545C10.5793 1.9909 10.6955 2.1726 10.9546 2.2415C11.2137 2.31041 11.5165 2.24027 11.6313 2.08523C11.9889 1.60166 12.3942 1.22678 12.8352 0.97084C13.2426 0.735 13.6589 0.615234 14.0725 0.615234C14.4177 0.615234 14.7663 0.700957 15.1047 0.862969C15.644 1.12178 16.1574 1.57582 16.5895 2.19105C17.3619 3.29191 17.7878 4.76232 17.7878 6.33076V6.34635C17.7851 7.90945 17.3599 9.3733 16.5895 10.4705C15.8867 11.4721 14.9687 12.0463 14.0725 12.0463C13.1756 12.0463 12.2582 11.4721 11.5548 10.4705C10.7823 9.36961 10.3564 7.89961 10.3564 6.33076C10.3564 5.26354 10.5588 4.2201 10.9402 3.31242C11.01 3.14795 10.8438 2.98061 10.569 2.93877C10.2949 2.89734 10.016 2.99701 9.94629 3.16189C9.54365 4.11797 9.33105 5.2135 9.33105 6.33076C9.33105 7.97959 9.78496 9.53449 10.6101 10.7092C11.4939 11.9684 12.723 12.6616 14.0725 12.6616H17.7878V15.7422C17.7878 15.9121 18.0175 16.0498 18.3005 16.0498C18.5835 16.0498 18.8132 15.9121 18.8132 15.7422V6.33076C18.8132 4.79391 18.4187 3.33908 17.6969 2.19721C17.0741 1.16443 16.1431 0.615645 16.1431 0.615645C16.1513 0.615645 16.1581 0.616875 16.1663 0.617285C16.1656 0.616465 16.1643 0.616055 16.1636 0.615234H20.9275C21.8073 0.615234 22.7075 1.16895 23.4055 2.13609H21.6049C21.3219 2.13609 21.0922 2.2735 21.0922 2.44371C21.0922 2.61352 21.3219 2.75133 21.6049 2.75133H23.7897C24.1916 3.49043 24.4596 4.35012 24.5758 5.26969H22.633C22.35 5.26969 22.1203 5.4075 22.1203 5.5773C22.1203 5.74752 22.35 5.88492 22.633 5.88492H24.6305C24.638 6.03258 24.6435 6.18106 24.6435 6.33076V6.54937C24.6435 6.71918 24.8732 6.85699 25.1562 6.85699C25.4392 6.85699 25.6689 6.71918 25.6689 6.54937V6.33076C25.6689 4.68193 25.2144 3.12703 24.3899 1.95234ZM17.7878 12.0463H16.1629C16.6756 11.721 17.1397 11.2719 17.5349 10.7091C17.6237 10.5824 17.7078 10.4503 17.7878 10.315V12.0463Z" fill="#FEFCFF"/>
</svg>
